<svg width="18" height="14" viewBox="0 0 18 14" fill="none" xmlns="http://www.w3.org/2000/svg">
<path d="M17.6235 2.64016C17.4165 1.86091 16.8067 1.24666 16.032 1.03816C14.6287 0.660156 9 0.660156 9 0.660156C9 0.660156 3.37125 0.660156 1.96725 1.03816C1.19325 1.24666 0.5835 1.86016 0.3765 2.64016C0 4.05316 0 7.00066 0 7.00066C0 7.00066 0 9.94816 0.3765 11.3612C0.5835 12.1404 1.19325 12.7547 1.968 12.9632C3.37125 13.3412 9 13.3412 9 13.3412C9 13.3412 14.6288 13.3412 16.0328 12.9632C16.8068 12.7547 17.4165 12.1412 17.6243 11.3612C18 9.94816 18 7.00066 18 7.00066C18 7.00066 18 4.05316 17.6235 2.64016ZM7.1595 9.67741V4.32391L11.8635 7.00066L7.1595 9.67741Z" fill="#414042"/>
</svg>
