<svg width="18" height="16" viewBox="0 0 18 16" fill="none" xmlns="http://www.w3.org/2000/svg">
<path d="M17.2511 15.1871H17.4214L17.0951 14.6936C17.2946 14.6936 17.4004 14.5668 17.4019 14.4116C17.4019 14.4056 17.4019 14.3988 17.4011 14.3928C17.4011 14.1813 17.2736 14.0801 17.0119 14.0801H16.5889V15.1871H16.7479V14.7048H16.9436L17.2511 15.1871ZM16.9324 14.5796H16.7479V14.2053H16.9819C17.1026 14.2053 17.2406 14.2248 17.2406 14.3831C17.2406 14.5646 17.1011 14.5796 16.9316 14.5796" fill="#414042"/>
<path d="M12.9683 13.3043H10.713V9.77254C10.713 8.93029 10.698 7.84654 9.54 7.84654C8.3655 7.84654 8.1855 8.76379 8.1855 9.71179V13.3043H5.931V6.04129H8.09625V7.03354H8.12625C8.568 6.27904 9.3885 5.82829 10.2622 5.86054C12.5483 5.86054 12.969 7.36429 12.969 9.31954L12.9683 13.3043ZM3.38625 5.04829C2.66325 5.04829 2.0775 4.46254 2.0775 3.73954C2.0775 3.01654 2.66325 2.43079 3.38625 2.43079C4.10925 2.43079 4.695 3.01654 4.695 3.73954C4.695 4.46254 4.10925 5.04829 3.38625 5.04829ZM4.5135 13.3043H2.256V6.04129H4.5135V13.3043ZM14.0925 0.33679H1.12275C0.51 0.33004 0.0075 0.82129 0 1.43404V14.457C0.0075 15.0705 0.51 15.5618 1.12275 15.555H14.0925C14.7068 15.5625 15.2115 15.0713 15.2197 14.457V1.43329C15.2107 0.81904 14.706 0.32779 14.0925 0.33604" fill="#414042"/>
<path d="M16.9524 13.5879C16.3794 13.5931 15.9189 14.0626 15.9249 14.6356C15.9301 15.2086 16.3996 15.6691 16.9726 15.6631C17.5456 15.6579 18.0061 15.1884 18.0001 14.6154C17.9949 14.0499 17.5374 13.5931 16.9726 13.5879H16.9524ZM16.9764 15.5439C16.4739 15.5521 16.0359 15.1524 16.0276 14.6499C16.0194 14.1474 16.4199 13.7334 16.9224 13.7251C17.4249 13.7169 17.8389 14.1174 17.8471 14.6199C17.8471 14.6251 17.8471 14.6296 17.8471 14.6349C17.8576 15.1261 17.4676 15.5334 16.9764 15.5439H16.9531H16.9764Z" fill="#414042"/>
</svg>
