<svg width="18" height="16" viewBox="0 0 18 16" fill="none" xmlns="http://www.w3.org/2000/svg">
<path d="M16.1572 4.32826C16.1677 4.48651 16.1677 4.64551 16.1677 4.80525C16.1677 9.6855 12.4522 15.3128 5.66025 15.3128V15.3098C3.654 15.3128 1.689 14.7383 0 13.6545C0.29175 13.6898 0.585 13.707 0.879 13.7078C2.5425 13.7093 4.158 13.1513 5.46525 12.1238C3.885 12.0938 2.499 11.0633 2.01525 9.55876C2.56875 9.66526 3.13875 9.64351 3.6825 9.49576C1.959 9.14776 0.72 7.63351 0.72 5.87551C0.72 5.85976 0.72 5.84401 0.72 5.82901C1.23375 6.11551 1.80825 6.27376 2.39625 6.29101C0.77325 5.20725 0.27225 3.04876 1.2525 1.36126C3.1275 3.66826 5.89425 5.07076 8.8635 5.22001C8.56575 3.93751 8.973 2.59351 9.9315 1.69126C11.4187 0.292506 13.758 0.364506 15.1567 1.85176C15.984 1.68901 16.7768 1.38526 17.502 0.955506C17.226 1.81051 16.6493 2.53651 15.8783 2.99851C16.611 2.91076 17.3258 2.71501 18 2.41651C17.5042 3.15826 16.8802 3.80551 16.1572 4.32826Z" fill="#414042"/>
</svg>
