<svg width="70" height="70" viewBox="0 0 70 70" fill="none" xmlns="http://www.w3.org/2000/svg">
<path d="M32.1446 30.8904L24.5875 23.3333L45.4825 23.3158L37.9079 30.8904C36.3708 32.4275 33.6846 32.4275 32.1446 30.8904ZM70 35C70 54.2996 54.2996 70 35 70C15.7004 70 0 54.2996 0 35C0 15.7004 15.7004 0 35 0C54.2996 0 70 15.7004 70 35ZM55.3963 26.2296C55.3963 24.8938 55.0725 23.6425 54.5358 22.5079L54.5621 22.4817L54.4688 22.3883C53.6142 20.6588 52.2171 19.2588 50.4875 18.4071L50.4379 18.3575L50.4233 18.3721C49.2742 17.8179 48.0025 17.4796 46.6433 17.4796L23.3333 17.5C21.9975 17.5 20.7463 17.8238 19.6146 18.3604L19.6 18.3692C16.6454 19.775 14.5833 22.7675 14.5833 26.25V49.5833L55.3963 49.56V26.2267V26.2296ZM35.0262 37.9167C32.3808 37.9167 29.89 36.8842 28.0204 35.0146L20.4196 27.4108V43.7471L49.5658 43.7296V27.4779L42.0321 35.0117C40.1625 36.8842 37.6746 37.9137 35.0292 37.9137L35.0262 37.9167Z" fill="#138E3D"/>
</svg>
