<svg width="24" height="24" viewBox="0 0 24 24" fill="none" xmlns="http://www.w3.org/2000/svg">
<g clip-path="url(#clip0_3047_1869)">
<path d="M16 20V24H8V20C8 19.448 8.448 19 9 19H15C15.552 19 16 19.448 16 20ZM12 9C10.897 9 10 9.897 10 11C10 12.103 10.897 13 12 13C13.103 13 14 12.103 14 11C14 9.897 13.103 9 12 9ZM24 10.074V24H18V20C18 18.346 16.654 17 15 17H9C7.346 17 6 18.346 6 20V24H0V10.074C0 9.115 0.433 8.226 1.187 7.635L10.092 0.658003C11.217 -0.222997 12.783 -0.222997 13.908 0.658003L20 5.43V1.999H22V6.996L22.813 7.633C23.567 8.225 24 9.113 24 10.072V10.074ZM16 11C16 8.794 14.206 7 12 7C9.794 7 8 8.794 8 11C8 13.206 9.794 15 12 15C14.206 15 16 13.206 16 11Z" fill="#222224"/>
</g>
<defs>
<clipPath id="clip0_3047_1869">
<rect width="24" height="24" fill="white"/>
</clipPath>
</defs>
</svg>
