<svg width="24" height="24" viewBox="0 0 24 24" fill="none" xmlns="http://www.w3.org/2000/svg">
<g clip-path="url(#clip0_3048_1871)">
<path d="M23.148 8.681C22.633 8.212 21.962 7.969 21.27 8.003C20.573 8.035 19.931 8.337 19.476 8.838L15.935 12.575C15.967 12.785 16 12.995 16 13.213C16 15.296 14.445 17.089 12.383 17.383L8.142 17.989L7.859 16.01L12.1 15.404C13.184 15.249 14 14.307 14 13.213C14 11.993 13.007 11 11.787 11H3C1.346 11 0 12.346 0 14V21C0 22.654 1.346 24 3 24H12.664L23.338 12.345C24.286 11.283 24.2 9.638 23.149 8.68L23.148 8.681ZM8.604 1.717C9.09 1.264 9.564 0.654 9.564 0H5.564C5.564 0.654 6.038 1.264 6.524 1.717C4.871 2.357 3.064 4.301 3.064 6.08C3.064 7.69 4.297 8.999 5.814 8.999H9.314C10.831 8.999 12.064 7.689 12.064 6.08C12.064 4.3 10.257 2.356 8.604 1.717Z" fill="#222224"/>
</g>
<defs>
<clipPath id="clip0_3048_1871">
<rect width="24" height="24" fill="white"/>
</clipPath>
</defs>
</svg>
