<svg width="140" height="47" viewBox="0 0 140 47" fill="none" xmlns="http://www.w3.org/2000/svg">
<path fill-rule="evenodd" clip-rule="evenodd" d="M20.1149 11.6666C26.7804 11.6666 32.1838 17.0701 32.1838 23.7356C32.1838 30.4011 26.7804 35.8046 20.1149 35.8046C13.4494 35.8046 8.0459 30.4011 8.0459 23.7356C8.0459 17.0701 13.4494 11.6666 20.1149 11.6666ZM60.3447 11.6666L47.4612 34.6366C46.8457 35.734 45.4512 36.128 44.3465 35.5166C43.9746 35.3108 43.6678 35.006 43.4606 34.6366L32.4737 15.0482C31.8582 13.9508 32.2549 12.5656 33.3596 11.9542C33.7004 11.7656 34.084 11.6666 34.4741 11.6666H60.3447Z" fill="#E83800"/>
<path fill-rule="evenodd" clip-rule="evenodd" d="M68.7015 21.5632C67.3433 21.5632 66.2969 21.1752 65.5622 20.3992C64.8276 19.6232 64.4356 18.5907 64.3862 17.3015L64.3677 16.4942L64.3862 15.687C64.4356 14.3978 64.8338 13.3652 65.5808 12.5893C66.3278 11.8133 67.368 11.4253 68.7015 11.4253C70.035 11.4253 71.0752 11.8133 71.8222 12.5893C72.5692 13.3652 72.9674 14.3978 73.0168 15.687C73.0414 15.9623 73.0538 16.2314 73.0538 16.4942C73.0538 16.7571 73.0414 17.0262 73.0168 17.3015C72.9674 18.5907 72.5754 19.6232 71.8407 20.3992C71.1061 21.1752 70.0597 21.5632 68.7015 21.5632ZM68.7015 20.1552C69.4917 20.1552 70.1183 19.9017 70.5813 19.3948C71.0443 18.8879 71.2943 18.1589 71.3314 17.2076C71.3437 17.0825 71.3499 16.8447 71.3499 16.4942C71.3499 16.1438 71.3437 15.906 71.3314 15.7808C71.2943 14.8296 71.0443 14.1006 70.5813 13.5937C70.1183 13.0868 69.4917 12.8333 68.7015 12.8333C67.9113 12.8333 67.2847 13.0868 66.8216 13.5937C66.3586 14.1006 66.1086 14.8296 66.0716 15.7808L66.053 16.4942L66.0716 17.2076C66.1086 18.1589 66.3586 18.8879 66.8216 19.3948C67.2847 19.9017 67.9113 20.1552 68.7015 20.1552ZM77.0727 24.9425C76.9616 24.9425 76.869 24.905 76.7949 24.8299C76.7209 24.7548 76.6838 24.6672 76.6838 24.567C76.6838 24.5295 76.7147 24.4168 76.7764 24.2291L78.221 20.7935L74.6836 12.3264C74.6095 12.1762 74.5725 12.0698 74.5725 12.0073C74.5848 11.8946 74.628 11.8007 74.7021 11.7257C74.7762 11.6506 74.8626 11.613 74.9614 11.613H75.8133C76.0109 11.613 76.1591 11.7131 76.2578 11.9134L79.11 18.8222L82.0362 11.9134C82.135 11.7131 82.2832 11.613 82.4807 11.613H83.3142C83.4129 11.613 83.4994 11.6506 83.5734 11.7257C83.6475 11.8007 83.6846 11.8884 83.6846 11.9885C83.6846 12.0761 83.6537 12.1887 83.592 12.3264L78.3507 24.6421C78.2889 24.7423 78.2241 24.8174 78.1562 24.8674C78.0883 24.9175 77.9988 24.9425 77.8876 24.9425H77.0727ZM88.8518 21.5632C87.9998 21.5632 87.2806 21.4224 86.6942 21.1408C86.1077 20.8592 85.6724 20.5369 85.3885 20.1739C85.1045 19.811 84.9625 19.5106 84.9625 19.2728C84.9625 19.1476 85.0057 19.0506 85.0921 18.9818C85.1786 18.9129 85.2712 18.8785 85.3699 18.8785H86.1478C86.2219 18.8785 86.2805 18.891 86.3237 18.9161C86.367 18.9411 86.4256 18.9974 86.4997 19.085C86.7837 19.4355 87.1016 19.7108 87.4535 19.9111C87.8054 20.1114 88.2776 20.2115 88.8703 20.2115C89.537 20.2115 90.0711 20.0863 90.4723 19.836C90.8736 19.5857 91.0742 19.2227 91.0742 18.7471C91.0742 18.4342 90.9878 18.1839 90.815 17.9962C90.6421 17.8084 90.355 17.6394 89.9538 17.4893C89.5525 17.3391 88.9567 17.1764 88.1665 17.0011C87.0923 16.7633 86.333 16.4191 85.8885 15.9686C85.444 15.518 85.2218 14.936 85.2218 14.2226C85.2218 13.7595 85.3576 13.3121 85.6292 12.8803C85.9009 12.4484 86.3052 12.098 86.8423 11.8289C87.3794 11.5598 88.0184 11.4253 88.7592 11.4253C89.5371 11.4253 90.2007 11.5567 90.7501 11.8195C91.2996 12.0824 91.7132 12.389 91.991 12.7394C92.2688 13.0899 92.4077 13.384 92.4077 13.6218C92.4077 13.7345 92.3676 13.8283 92.2873 13.9034C92.2071 13.9785 92.1114 14.0161 92.0003 14.0161H91.2965C91.1236 14.0161 91.0002 13.9472 90.9261 13.8096C90.7162 13.5718 90.5402 13.3871 90.3983 13.2557C90.2563 13.1243 90.0494 13.0117 89.7778 12.9178C89.5062 12.8239 89.1666 12.777 88.7592 12.777C88.1542 12.777 87.6912 12.9053 87.3701 13.1619C87.0491 13.4184 86.8886 13.7595 86.8886 14.185C86.8886 14.4479 86.9565 14.67 87.0923 14.8515C87.2282 15.033 87.4874 15.202 87.8702 15.3584C88.253 15.5149 88.8209 15.6744 89.5741 15.8371C90.7471 16.0875 91.5774 16.4442 92.0651 16.9073C92.5528 17.3704 92.7967 17.9649 92.7967 18.6908C92.7967 19.229 92.6454 19.7171 92.3429 20.1552C92.0404 20.5932 91.5897 20.9374 90.9909 21.1877C90.3921 21.438 89.679 21.5632 88.8518 21.5632ZM98.6677 21.3755C96.7539 21.3755 95.797 20.2803 95.797 18.09V13.0586H94.3339C94.2104 13.0586 94.1116 13.0211 94.0375 12.946C93.9634 12.8709 93.9264 12.7707 93.9264 12.6456V12.0448C93.9264 11.9196 93.9634 11.8164 94.0375 11.735C94.1116 11.6537 94.2104 11.613 94.3339 11.613H95.797V8.47776C95.797 8.3526 95.834 8.24934 95.9081 8.16799C95.9822 8.08664 96.081 8.04596 96.2044 8.04596H97.0193C97.1428 8.04596 97.2447 8.08664 97.3249 8.16799C97.4052 8.24934 97.4453 8.3526 97.4453 8.47776V11.613H99.7418C99.8653 11.613 99.9672 11.6537 100.047 11.735C100.128 11.8164 100.168 11.9196 100.168 12.0448V12.6456C100.168 12.7707 100.128 12.8709 100.047 12.946C99.9672 13.0211 99.8653 13.0586 99.7418 13.0586H97.4453V17.9586C97.4453 18.5969 97.5472 19.0788 97.7509 19.4042C97.9546 19.7296 98.3034 19.8923 98.7973 19.8923H99.927C100.051 19.8923 100.149 19.933 100.223 20.0143C100.297 20.0957 100.335 20.199 100.335 20.3241V20.9437C100.335 21.0688 100.297 21.1721 100.223 21.2534C100.149 21.3348 100.051 21.3755 99.927 21.3755H98.6677ZM105.965 21.5632C104.705 21.5632 103.699 21.1658 102.946 20.3711C102.193 19.5763 101.779 18.4905 101.705 17.1138L101.686 16.4755L101.705 15.8559C101.779 14.5042 102.193 13.4278 102.946 12.6268C103.699 11.8258 104.705 11.4253 105.965 11.4253C107.323 11.4253 108.375 11.8633 109.122 12.7394C109.869 13.6156 110.243 14.8046 110.243 16.3065V16.6444C110.243 16.7696 110.203 16.8728 110.123 16.9542C110.042 17.0356 109.94 17.0762 109.817 17.0762H103.39V17.2452C103.427 18.0587 103.674 18.7534 104.131 19.3291C104.588 19.9048 105.193 20.1927 105.946 20.1927C106.527 20.1927 106.999 20.0769 107.363 19.8454C107.727 19.6138 108.002 19.3729 108.187 19.1226C108.298 18.9724 108.385 18.8817 108.446 18.8504C108.508 18.8191 108.613 18.8034 108.761 18.8034H109.576C109.687 18.8034 109.783 18.8347 109.863 18.8973C109.944 18.9599 109.984 19.0412 109.984 19.1414C109.984 19.4167 109.817 19.7484 109.484 20.1364C109.15 20.5244 108.678 20.8592 108.067 21.1408C107.456 21.4224 106.755 21.5632 105.965 21.5632ZM108.558 15.7996V15.7433C108.558 14.8672 108.323 14.1538 107.854 13.603C107.385 13.0523 106.755 12.777 105.965 12.777C105.162 12.777 104.532 13.0523 104.076 13.603C103.619 14.1538 103.39 14.8672 103.39 15.7433V15.7996H108.558ZM112.928 21.3755C112.805 21.3755 112.703 21.3348 112.623 21.2534C112.543 21.1721 112.502 21.0688 112.502 20.9437V12.0636C112.502 11.9384 112.543 11.832 112.623 11.7444C112.703 11.6568 112.805 11.613 112.928 11.613H113.706C113.842 11.613 113.95 11.6537 114.03 11.735C114.111 11.8164 114.151 11.9259 114.151 12.0636V12.8896C114.657 12.0385 115.515 11.613 116.725 11.613H117.447C117.583 11.613 117.688 11.6506 117.762 11.7257C117.836 11.8007 117.873 11.9071 117.873 12.0448V12.7394C117.873 12.8646 117.836 12.9679 117.762 13.0492C117.688 13.1306 117.583 13.1712 117.447 13.1712H116.392C115.713 13.1712 115.179 13.3715 114.79 13.772C114.401 14.1725 114.206 14.717 114.206 15.4053V20.9437C114.206 21.0688 114.163 21.1721 114.077 21.2534C113.99 21.3348 113.885 21.3755 113.762 21.3755H112.928Z" fill="#282828"/>
<path fill-rule="evenodd" clip-rule="evenodd" d="M60.4823 38.034C60.1603 38.034 59.9313 37.8803 59.7951 37.573L56.3403 29.0175C56.328 28.9806 56.3218 28.9191 56.3218 28.8331C56.3218 28.7224 56.3589 28.6302 56.4332 28.5565C56.5075 28.4827 56.5942 28.4459 56.6933 28.4459H57.5476C57.7458 28.4459 57.8944 28.5442 57.9934 28.7409L60.8538 36.0979L63.7141 28.7409C63.7389 28.6671 63.7915 28.5995 63.872 28.5381C63.9525 28.4766 64.0484 28.4459 64.1599 28.4459H65.0143C65.1133 28.4459 65.2 28.4827 65.2743 28.5565C65.3486 28.6302 65.3858 28.7224 65.3858 28.8331L65.3486 29.0175L61.9125 37.573C61.7763 37.8803 61.5472 38.034 61.2252 38.034H60.4823ZM71.1993 38.2184C69.9363 38.2184 68.9271 37.8281 68.1718 37.0475C67.4165 36.2669 67.0017 35.2006 66.9274 33.8484L66.9088 33.2215L66.9274 32.613C67.0017 31.2854 67.4165 30.2283 68.1718 29.4415C68.9271 28.6548 69.9363 28.2615 71.1993 28.2615C72.5614 28.2615 73.617 28.6917 74.3661 29.5522C75.1153 30.4127 75.4899 31.5804 75.4899 33.0555V33.3874C75.4899 33.5104 75.4496 33.6118 75.3691 33.6917C75.2886 33.7716 75.1865 33.8115 75.0627 33.8115H68.6176V33.9775C68.6547 34.7765 68.9024 35.4587 69.3605 36.0242C69.8187 36.5896 70.4254 36.8723 71.1808 36.8723C71.7627 36.8723 72.2364 36.7586 72.6016 36.5312C72.9669 36.3038 73.2424 36.0672 73.4282 35.8213C73.5396 35.6738 73.6263 35.5847 73.6882 35.554C73.7501 35.5232 73.8554 35.5079 74.004 35.5079H74.8212C74.9326 35.5079 75.0286 35.5386 75.1091 35.6001C75.1896 35.6615 75.2298 35.7414 75.2298 35.8398C75.2298 36.1102 75.0627 36.436 74.7283 36.817C74.394 37.1981 73.9204 37.5269 73.3074 37.8035C72.6945 38.0801 71.9918 38.2184 71.1993 38.2184ZM73.7996 32.5577V32.5024C73.7996 31.6419 73.5644 30.9412 73.0938 30.4004C72.6233 29.8595 71.9918 29.5891 71.1993 29.5891C70.3945 29.5891 69.763 29.8595 69.3048 30.4004C68.8467 30.9412 68.6176 31.6419 68.6176 32.5024V32.5577H73.7996ZM78.183 38.034C78.0592 38.034 77.9571 37.994 77.8766 37.9141C77.7961 37.8342 77.7558 37.7328 77.7558 37.6099V28.8699C77.7558 28.747 77.7961 28.6456 77.8766 28.5657C77.9571 28.4858 78.0592 28.4459 78.183 28.4459H78.9817C79.1179 28.4459 79.2232 28.4827 79.2975 28.5565C79.3718 28.6302 79.4089 28.7347 79.4089 28.8699V29.6813C79.7804 29.2264 80.2107 28.8761 80.6998 28.6302C81.1889 28.3844 81.7987 28.2615 82.5293 28.2615C83.718 28.2615 84.6405 28.6395 85.2968 29.3954C85.9531 30.1514 86.2812 31.1502 86.2812 32.3917V37.6099C86.2812 37.7328 86.2409 37.8342 86.1605 37.9141C86.08 37.994 85.9778 38.034 85.854 38.034H84.9996C84.8758 38.034 84.7736 37.994 84.6931 37.9141C84.6126 37.8342 84.5724 37.7328 84.5724 37.6099V32.5024C84.5724 31.6173 84.3557 30.9289 83.9223 30.4372C83.4889 29.9455 82.8698 29.6997 82.065 29.6997C81.2725 29.6997 80.641 29.9486 80.1704 30.4465C79.6999 30.9443 79.4646 31.6296 79.4646 32.5024V37.6099C79.4646 37.7328 79.4244 37.8342 79.3439 37.9141C79.2634 37.994 79.1613 38.034 79.0374 38.034H78.183ZM92.6891 38.034C90.7698 38.034 89.8102 36.9584 89.8102 34.8072V29.8656H88.3429C88.219 29.8656 88.12 29.8288 88.0457 29.755C87.9714 29.6813 87.9343 29.5829 87.9343 29.46V28.8699C87.9343 28.747 87.9714 28.6456 88.0457 28.5657C88.12 28.4858 88.219 28.4459 88.3429 28.4459H89.8102V25.3666C89.8102 25.2437 89.8473 25.1423 89.9216 25.0624C89.9959 24.9825 90.095 24.9425 90.2188 24.9425H91.0361C91.1599 24.9425 91.262 24.9825 91.3425 25.0624C91.423 25.1423 91.4633 25.2437 91.4633 25.3666V28.4459H93.7664C93.8902 28.4459 93.9924 28.4858 94.0729 28.5657C94.1534 28.6456 94.1936 28.747 94.1936 28.8699V29.46C94.1936 29.5829 94.1534 29.6813 94.0729 29.755C93.9924 29.8288 93.8902 29.8656 93.7664 29.8656H91.4633V34.6781C91.4633 35.3051 91.5654 35.7783 91.7697 36.0979C91.974 36.4175 92.3238 36.5773 92.8191 36.5773H93.9521C94.076 36.5773 94.175 36.6173 94.2493 36.6972C94.3236 36.7771 94.3608 36.8785 94.3608 37.0014V37.6099C94.3608 37.7328 94.3236 37.8342 94.2493 37.9141C94.175 37.994 94.076 38.034 93.9521 38.034H92.6891ZM99.7843 38.2184C98.6079 38.2184 97.6978 37.8404 97.0539 37.0844C96.41 36.3284 96.0881 35.3235 96.0881 34.0697V28.8699C96.0881 28.747 96.1284 28.6456 96.2088 28.5657C96.2893 28.4858 96.3915 28.4459 96.5153 28.4459H97.3697C97.4935 28.4459 97.5957 28.4858 97.6762 28.5657C97.7566 28.6456 97.7969 28.747 97.7969 28.8699V33.9775C97.7969 35.8459 98.6141 36.7802 100.249 36.7802C101.041 36.7802 101.67 36.5312 102.134 36.0334C102.598 35.5355 102.83 34.8502 102.83 33.9775V28.8699C102.83 28.747 102.871 28.6456 102.951 28.5657C103.032 28.4858 103.134 28.4459 103.258 28.4459H104.112C104.236 28.4459 104.338 28.4858 104.418 28.5657C104.499 28.6456 104.539 28.747 104.539 28.8699V37.6099C104.539 37.7328 104.499 37.8342 104.418 37.9141C104.338 37.994 104.236 38.034 104.112 38.034H103.313C103.189 38.034 103.087 37.994 103.007 37.9141C102.926 37.8342 102.886 37.7328 102.886 37.6099V36.7802C102.527 37.2596 102.106 37.6191 101.623 37.8588C101.14 38.0985 100.527 38.2184 99.7843 38.2184ZM107.752 38.034C107.629 38.034 107.526 37.994 107.446 37.9141C107.365 37.8342 107.325 37.7328 107.325 37.6099V28.8884C107.325 28.7655 107.365 28.661 107.446 28.5749C107.526 28.4889 107.629 28.4459 107.752 28.4459H108.533C108.669 28.4459 108.777 28.4858 108.858 28.5657C108.938 28.6456 108.978 28.7532 108.978 28.8884V29.6997C109.486 28.8638 110.347 28.4459 111.56 28.4459H112.284C112.421 28.4459 112.526 28.4827 112.6 28.5565C112.674 28.6302 112.712 28.7347 112.712 28.8699V29.5522C112.712 29.6751 112.674 29.7765 112.6 29.8564C112.526 29.9363 112.421 29.9763 112.284 29.9763H111.226C110.545 29.9763 110.009 30.1729 109.619 30.5663C109.229 30.9597 109.034 31.4944 109.034 32.1705V37.6099C109.034 37.7328 108.991 37.8342 108.904 37.9141C108.817 37.994 108.712 38.034 108.588 38.034H107.752ZM118.135 38.2184C116.872 38.2184 115.863 37.8281 115.108 37.0475C114.352 36.2669 113.937 35.2006 113.863 33.8484L113.845 33.2215L113.863 32.613C113.937 31.2854 114.352 30.2283 115.108 29.4415C115.863 28.6548 116.872 28.2615 118.135 28.2615C119.497 28.2615 120.553 28.6917 121.302 29.5522C122.051 30.4127 122.426 31.5804 122.426 33.0555V33.3874C122.426 33.5104 122.385 33.6118 122.305 33.6917C122.224 33.7716 122.122 33.8115 121.998 33.8115H115.553V33.9775C115.591 34.7765 115.838 35.4587 116.296 36.0242C116.754 36.5896 117.361 36.8723 118.117 36.8723C118.699 36.8723 119.172 36.7586 119.537 36.5312C119.903 36.3038 120.178 36.0672 120.364 35.8213C120.475 35.6738 120.562 35.5847 120.624 35.554C120.686 35.5232 120.791 35.5079 120.94 35.5079H121.757C121.868 35.5079 121.964 35.5386 122.045 35.6001C122.125 35.6615 122.166 35.7414 122.166 35.8398C122.166 36.1102 121.998 36.436 121.664 36.817C121.33 37.1981 120.856 37.5269 120.243 37.8035C119.63 38.0801 118.928 38.2184 118.135 38.2184ZM120.735 32.5577V32.5024C120.735 31.6419 120.5 30.9412 120.03 30.4004C119.559 29.8595 118.928 29.5891 118.135 29.5891C117.33 29.5891 116.699 29.8595 116.241 30.4004C115.782 30.9412 115.553 31.6419 115.553 32.5024V32.5577H120.735ZM127.998 38.2184C127.143 38.2184 126.422 38.0801 125.834 37.8035C125.246 37.5269 124.809 37.2104 124.524 36.8539C124.24 36.4974 124.097 36.2024 124.097 35.9688C124.097 35.8459 124.141 35.7507 124.227 35.683C124.314 35.6154 124.407 35.5816 124.506 35.5816H125.286C125.36 35.5816 125.419 35.5939 125.462 35.6185C125.506 35.6431 125.565 35.6984 125.639 35.7845C125.924 36.1286 126.243 36.3991 126.595 36.5958C126.948 36.7924 127.422 36.8908 128.016 36.8908C128.685 36.8908 129.221 36.7679 129.623 36.522C130.025 36.2762 130.227 35.9197 130.227 35.4526C130.227 35.1452 130.14 34.8994 129.967 34.715C129.793 34.5306 129.505 34.3647 129.103 34.2172C128.7 34.0697 128.103 33.9099 127.311 33.7378C126.233 33.5042 125.472 33.1662 125.026 32.7236C124.58 32.2811 124.357 31.7095 124.357 31.0088C124.357 30.554 124.494 30.1146 124.766 29.6905C125.038 29.2664 125.444 28.9222 125.983 28.6579C126.521 28.3936 127.162 28.2615 127.905 28.2615C128.685 28.2615 129.351 28.3905 129.902 28.6487C130.453 28.9068 130.867 29.208 131.146 29.5522C131.425 29.8964 131.564 30.1852 131.564 30.4188C131.564 30.5294 131.524 30.6216 131.443 30.6954C131.363 30.7691 131.267 30.806 131.155 30.806H130.449C130.276 30.806 130.152 30.7384 130.078 30.6032C129.868 30.3696 129.691 30.1883 129.549 30.0592C129.406 29.9302 129.199 29.8195 128.926 29.7273C128.654 29.6352 128.314 29.5891 127.905 29.5891C127.298 29.5891 126.834 29.7151 126.512 29.967C126.19 30.219 126.029 30.554 126.029 30.972C126.029 31.2301 126.097 31.4483 126.233 31.6265C126.369 31.8048 126.629 31.9707 127.013 32.1244C127.397 32.278 127.967 32.4348 128.722 32.5946C129.898 32.8404 130.731 33.1907 131.22 33.6456C131.709 34.1004 131.954 34.6843 131.954 35.3972C131.954 35.9258 131.802 36.4052 131.499 36.8355C131.196 37.2657 130.744 37.6037 130.143 37.8496C129.542 38.0954 128.827 38.2184 127.998 38.2184Z" fill="#282828"/>
</svg>
