<svg width="140" height="140" viewBox="0 0 140 140" fill="none" xmlns="http://www.w3.org/2000/svg">
<path d="M7.98751 59.543H12.3679V63.4509H15.5243V66.5644H12.3679V72.9847C12.3679 74.3374 12.7973 74.5951 14.2575 74.5951H15.5243V77.773H12.7329C9.18997 77.773 7.98751 77.0859 7.98751 73.7577V66.5644H5.73291V63.4509H7.98751V59.543ZM30.3832 73.3068C29.0949 76.6994 26.0887 78.1595 23.2329 78.1595C18.5734 78.1595 15.374 75.3466 15.374 70.5583C15.374 65.9632 18.8525 63.0644 23.0611 63.0644C27.828 63.0644 30.7482 66.6718 30.4476 71.7607H19.8188C19.9476 73.8006 21.5366 74.7239 23.1255 74.7239C24.8004 74.7239 25.8525 74.1227 26.3464 73.2853L30.3832 73.3068ZM19.8832 69.0982H26.0887C26.0028 67.2945 24.7575 66.3927 23.0826 66.3927C21.4936 66.3927 20.1194 67.2086 19.8832 69.0982ZM45.5213 68.7117H41.4415C41.055 67.0368 40.0028 66.4571 38.7145 66.4571C37.147 66.4571 35.601 67.5307 35.601 70.6012C35.601 73.7147 37.147 74.7454 38.7145 74.7454C40.3249 74.7454 41.3341 73.908 41.6562 72.5337H45.736C44.7482 76.7853 41.3127 78.138 38.4354 78.138C33.7114 78.138 31.1133 75.1104 31.1133 70.5368C31.1133 65.9632 34.0979 63.043 38.4354 63.043C41.3986 63.043 44.6624 64.3957 45.5213 68.7117ZM50.6102 65.362C51.2329 64.2884 52.8004 63.1503 55.055 63.1503C58.7268 63.1503 59.8863 65.319 59.8863 69.2055V77.816H55.5059V70.3221C55.5059 68.2822 55.4415 66.6074 53.3157 66.6074C51.4262 66.6074 50.6317 67.8313 50.6317 70.5153V77.8589H46.2513V58.5338H50.6317L50.6102 65.362ZM69.9783 67.681C69.6777 66.6074 68.5611 66.3068 67.1869 66.3068C65.6624 66.3068 64.9108 66.6718 64.9108 67.3804C64.9108 68.046 65.4262 68.4325 66.6716 68.6687L69.3556 69.1411C72.7912 69.7638 74.4446 70.7945 74.4446 73.3068C74.4446 76.5276 71.4814 78.1595 67.509 78.1595C63.6869 78.1595 60.9814 76.5491 60.4875 73.1565H64.5673C64.9538 74.5307 66.0703 74.9601 67.5734 74.9601C69.1409 74.9601 70.236 74.5307 70.236 73.6718C70.236 73.0491 69.6777 72.6196 67.9814 72.3405L65.4262 71.9111C62.6562 71.4601 60.7667 70.0644 60.7667 67.5307C60.7667 64.6749 63.7728 63.1074 67.3157 63.1074C70.5795 63.1074 73.5642 64.4172 74.101 67.7025L69.9783 67.681ZM76.6992 59.543H81.0795V63.4509H84.236V66.5644H81.0795V72.9847C81.0795 74.3374 81.509 74.5951 82.9691 74.5951H84.2145V77.773H81.4446C77.9016 77.773 76.6992 77.0859 76.6992 73.7577V66.5644H74.4446V63.4509H76.6992V59.543ZM94.2421 68.2822C94.2421 66.5644 93.4262 66.0061 91.8157 66.0061C90.3986 66.0061 89.4538 66.7362 89.2605 68.1104H85.1593C85.374 65.4049 87.9292 63.0215 92.1808 63.0215C96.3249 63.0215 98.6654 64.6963 98.5795 69.0552L98.5151 72.1687V73.6718C98.5151 75.2393 98.6225 76.9356 98.8372 77.816H94.5213L94.4568 76.0767C93.3832 77.6012 91.6869 78.1595 89.6255 78.1595C86.8986 78.1595 84.6654 76.5706 84.6654 73.9509C84.6654 70.4295 88.6378 69.2914 94.1992 68.862L94.2421 68.2822ZM94.3709 71.4387C91.3004 71.7393 89.2605 72.0399 89.2605 73.6288C89.2605 74.5522 90.1409 75.1749 91.2789 75.1749C93.0397 75.1749 94.3709 74.4233 94.3709 71.7822V71.4387ZM108.629 67.681C108.242 67.6166 107.813 67.5736 107.426 67.5951C105.3 67.5951 104.205 68.3681 104.205 70.6012V77.7945H99.8035V63.4509H104.034V66.1779C104.699 64.4601 105.902 63.4509 107.941 63.365H108.264C108.392 63.365 108.5 63.365 108.629 63.3865V67.681ZM118.334 67.681C118.034 66.6074 116.917 66.3068 115.543 66.3068C114.018 66.3068 113.267 66.6718 113.267 67.3804C113.267 68.046 113.782 68.4325 115.027 68.6687L117.69 69.1411C121.126 69.7638 122.779 70.7945 122.779 73.3068C122.779 76.5276 119.816 78.1595 115.843 78.1595C112.043 78.1595 109.316 76.5491 108.822 73.1565H112.902C113.288 74.5307 114.405 74.9601 115.908 74.9601C117.475 74.9601 118.57 74.5307 118.57 73.6718C118.57 73.0491 118.012 72.6196 116.316 72.3405L113.761 71.9111C110.991 71.4601 109.122 70.0644 109.122 67.5307C109.122 64.6749 112.129 63.1074 115.672 63.1074C118.935 63.1074 121.92 64.4172 122.457 67.7025L118.334 67.681Z" fill="#222224"/>
<path d="M122.693 81.5092V77.8159H134.546V81.5092H122.693Z" fill="#39C463"/>
</svg>
