<svg width="54" height="64" viewBox="0 0 54 64" fill="none" xmlns="http://www.w3.org/2000/svg">
<path d="M48.1837 7.04477L26.9997 0.0234375L5.81568 7.04477C4.2196 7.57388 2.83083 8.59245 1.84661 9.9558C0.862398 11.3191 0.332787 12.958 0.333008 14.6394V31.9994C0.333008 52.0634 24.8663 63.1434 25.917 63.6048L26.861 64.0234L27.8423 63.6981C28.8983 63.3461 53.6663 54.8714 53.6663 31.9994V14.6394C53.6666 12.958 53.137 11.3191 52.1527 9.9558C51.1685 8.59245 49.7797 7.57388 48.1837 7.04477ZM28.1837 37.3034C27.7175 37.7727 27.1627 38.1448 26.5516 38.3979C25.9405 38.6511 25.2852 38.7803 24.6237 38.7781H24.5357C23.8607 38.7678 23.1949 38.6206 22.5784 38.3456C21.9619 38.0706 21.4076 37.6734 20.949 37.1781L14.7997 30.7781L18.6477 27.0928L24.6317 33.3328L38.4477 19.5168L42.2183 23.2874L28.1837 37.3034Z" fill="#138E3D"/>
</svg>
