<svg width="24" height="20" viewBox="0 0 24 20" fill="none" xmlns="http://www.w3.org/2000/svg">
<path d="M21.543 5.10385C21.557 5.31485 21.557 5.52685 21.557 5.73985C21.557 12.2469 16.603 19.7499 7.547 19.7499V19.7459C4.872 19.7499 2.252 18.9839 0 17.5389C0.389 17.5859 0.78 17.6089 1.172 17.6099C3.39 17.6119 5.544 16.8679 7.287 15.4979C5.18 15.4579 3.332 14.0839 2.687 12.0779C3.425 12.2199 4.185 12.1909 4.91 11.9939C2.612 11.5299 0.96 9.51085 0.96 7.16685C0.96 7.14585 0.96 7.12485 0.96 7.10485C1.645 7.48685 2.411 7.69785 3.195 7.72085C1.031 6.27585 0.363 3.39785 1.67 1.14785C4.17 4.22385 7.859 6.09385 11.818 6.29285C11.421 4.58285 11.964 2.79085 13.242 1.58785C15.225 -0.277148 18.344 -0.181148 20.209 1.80185C21.312 1.58485 22.369 1.17985 23.336 0.606853C22.968 1.74685 22.199 2.71485 21.171 3.33085C22.148 3.21385 23.101 2.95285 24 2.55485C23.339 3.54385 22.507 4.40685 21.543 5.10385Z" fill="#218B47"/>
</svg>
