<svg width="24" height="19" viewBox="0 0 24 19" fill="none" xmlns="http://www.w3.org/2000/svg">
<path d="M23.498 3.44385C23.222 2.36156 22.409 1.50843 21.376 1.21885C19.505 0.693848 12 0.693848 12 0.693848C12 0.693848 4.495 0.693848 2.623 1.21885C1.591 1.50843 0.778 2.36051 0.502 3.44385C0 5.40635 0 9.5001 0 9.5001C0 9.5001 0 13.5938 0.502 15.5563C0.778 16.6386 1.591 17.4918 2.624 17.7814C4.495 18.3064 12 18.3064 12 18.3064C12 18.3064 19.505 18.3064 21.377 17.7814C22.409 17.4918 23.222 16.6397 23.499 15.5563C24 13.5938 24 9.5001 24 9.5001C24 9.5001 24 5.40635 23.498 3.44385ZM9.546 13.2178V5.78239L15.818 9.5001L9.546 13.2178Z" fill="#218B47"/>
</svg>
